<?xml version="1.0" encoding="UTF-8" standalone="no"?>
<!-- Created with Inkscape (http://www.inkscape.org/) -->

<svg
   xmlns:dc="http://purl.org/dc/elements/1.1/"
   xmlns:cc="http://creativecommons.org/ns#"
   xmlns:rdf="http://www.w3.org/1999/02/22-rdf-syntax-ns#"
   xmlns:svg="http://www.w3.org/2000/svg"
   xmlns="http://www.w3.org/2000/svg"
   xmlns:sodipodi="http://sodipodi.sourceforge.net/DTD/sodipodi-0.dtd"
   xmlns:inkscape="http://www.inkscape.org/namespaces/inkscape"
   id="svg3376"
   version="1.1"
   inkscape:version="0.91 r13725"
   width="500"
   height="600"
   sodipodi:docname="icon.svg">
  <metadata
     id="metadata3382">
    <rdf:RDF>
      <cc:Work
         rdf:about="">
        <dc:format>image/svg+xml</dc:format>
        <dc:type
           rdf:resource="http://purl.org/dc/dcmitype/StillImage" />
        <dc:title></dc:title>
      </cc:Work>
    </rdf:RDF>
  </metadata>
  <defs
     id="defs3380" />
  <sodipodi:namedview
     pagecolor="#ffffff"
     bordercolor="#666666"
     borderopacity="1"
     objecttolerance="10"
     gridtolerance="10"
     guidetolerance="10"
     inkscape:pageopacity="0"
     inkscape:pageshadow="2"
     inkscape:window-width="1160"
     inkscape:window-height="756"
     id="namedview3378"
     showgrid="false"
     inkscape:zoom="0.18680519"
     inkscape:cx="44.351144"
     inkscape:cy="798.28363"
     inkscape:window-x="168"
     inkscape:window-y="0"
     inkscape:window-maximized="0"
     inkscape:current-layer="svg3376"
     borderlayer="true"
     inkscape:showpageshadow="false" />
  <rect
     style="fill:#000000;fill-opacity:1;stroke:none;stroke-width:5;stroke-linecap:round;stroke-linejoin:miter;stroke-miterlimit:4;stroke-dasharray:none;stroke-dashoffset:0;stroke-opacity:1"
     id="rect4141"
     width="793.01263"
     height="749.48212"
     x="-1226.4253"
     y="-774.05054"
     inkscape:export-xdpi="123.41467"
     inkscape:export-ydpi="123.41467" />
  <path
     inkscape:connector-curvature="0"
     id="path2986"
     d="m -946.9122,-348.13779 0,-296.63441 256.7211,0 256.7211,0 0,296.63441 0,296.634403 -256.7211,0 -256.7211,0 0,-296.634403 z"
     style="fill:#33fcff;fill-opacity:1"
     inkscape:export-xdpi="123.41467"
     inkscape:export-ydpi="123.41467" />
  <path
     inkscape:connector-curvature="0"
     id="path2984"
     d="m -956.37536,-349.59281 0,-301.36599 261.45268,0 261.45268,0 0,76.7571 c 0,42.2164 -0.29413,76.7571 -0.65363,76.7571 -1.00456,0 -5.32178,-4.37659 -6.30105,-6.38769 -1.10117,-2.26147 -3.93898,-6.62567 -4.84677,-7.45376 -1.53367,-1.399 -5.82057,-11.9834 -5.46248,-13.48691 0.21127,-0.88707 -0.22993,-1.61284 -0.98045,-1.61284 -0.75051,0 -1.36457,-2.23155 -1.36457,-4.95899 0,-2.72745 -0.58827,-5.30895 -1.30726,-5.73668 -0.719,-0.42772 -1.31089,-1.73518 -1.31532,-2.90546 -0.004,-1.17028 -0.88683,-3.74968 -1.9609,-5.73198 -1.07406,-1.98231 -1.95284,-4.67195 -1.95284,-5.97699 0,-1.30504 -0.54153,-2.37279 -1.20339,-2.37279 -0.66186,0 -1.57286,-1.61914 -2.02441,-3.5981 -0.45157,-1.97895 -2.55724,-5.19921 -4.6793,-7.15613 -2.12204,-1.95693 -3.85827,-4.05613 -3.85827,-4.6649 0,-0.60877 -1.54049,-3.05092 -3.42332,-5.42699 -1.88282,-2.37608 -2.95682,-4.32014 -2.38664,-4.32014 0.57016,0 -0.10811,-1.27404 -1.50718,-2.83121 -1.39912,-1.55716 -4.26622,-6.22865 -6.37133,-10.38108 -4.18552,-8.25608 -9.35951,-14.4706 -12.04774,-14.4706 -0.94398,0 -1.71632,-0.84936 -1.71632,-1.88747 0,-1.39441 -1.51657,-1.88747 -5.80553,-1.88747 -3.19304,0 -6.15322,0.54151 -6.57819,1.20336 -0.42495,0.66185 -1.5767,0.90636 -2.55944,0.54337 -0.98275,-0.36299 -2.17515,-0.0551 -2.64982,0.68411 -0.47466,0.73926 -1.91365,1.3441 -3.19778,1.3441 -1.28412,0 -3.38696,1.11913 -4.67298,2.48695 -1.28602,1.36783 -2.76565,2.23268 -3.28805,1.9219 -1.08629,-0.64621 -13.08064,11.18011 -13.08064,12.89738 0,0.62138 -1.47067,2.45967 -3.26816,4.08509 -1.79748,1.62542 -3.26816,4.06823 -3.26816,5.42846 0,1.36022 -1.02947,3.19772 -2.28771,4.08332 -1.25824,0.88559 -2.36684,2.0805 -2.46356,2.65534 -0.53573,3.18399 -2.24026,6.70758 -3.24477,6.70758 -0.63514,0 -1.1548,1.15568 -1.1548,2.56817 0,1.41249 -1.81389,5.92293 -4.03085,10.0232 -2.21698,4.10027 -4.14279,8.18904 -4.27958,9.08615 -0.13679,0.89711 -1.41131,3.21692 -2.83228,5.15514 -6.31065,8.60784 -8.81706,10.91673 -11.8506,10.91673 -1.73358,0 -3.15196,0.56624 -3.15196,1.25831 0,0.69208 -2.25503,1.25832 -5.01117,1.25832 -2.75616,0 -5.45239,0.42468 -5.99163,0.94373 -0.53925,0.51905 -1.37263,0.99263 -1.85195,1.05242 -1.47814,0.18431 -6.06407,2.18411 -6.7542,2.94532 -0.92572,1.02106 -5.41347,3.66822 -8.49721,5.01224 -1.43799,0.62671 -5.23715,3.73969 -8.44258,6.91771 -3.20543,3.17802 -6.58797,5.77821 -7.51677,5.77821 -0.92878,0 -1.68871,0.51573 -1.68871,1.14606 0,0.63034 -2.50014,2.3473 -5.55587,3.81547 -3.05572,1.46817 -7.90894,4.03746 -10.78492,5.70953 -9.34382,5.4324 -12.76987,6.94533 -15.72793,6.94533 -1.599,0 -3.63958,0.84936 -4.53465,1.88746 -0.89507,1.03811 -2.43777,1.88747 -3.42822,1.88747 -0.99046,0 -1.80084,0.50021 -1.80084,1.11156 0,0.61135 -1.02947,1.47416 -2.28771,1.91736 -1.25824,0.44319 -4.93492,2.20211 -8.17039,3.90869 -3.23548,1.7066 -6.52764,3.10875 -7.31592,3.1159 -2.3887,0.0216 -9.67851,3.8919 -9.67851,5.13841 0,0.64139 -1.18452,1.16615 -2.63226,1.16615 -2.50933,0 -7.74184,2.25468 -9.13311,3.93542 -0.35949,0.4343 -3.15069,1.19137 -6.20265,1.68239 -3.05196,0.491 -5.88096,1.40971 -6.28665,2.04156 -0.4057,0.63186 -4.49194,1.14883 -9.08054,1.14883 -4.5886,0 -8.70648,0.56624 -9.15085,1.25831 -0.44436,0.69207 -1.94975,1.25831 -3.34531,1.25831 -1.39556,0 -2.53737,-0.56624 -2.53737,-1.25831 0,-0.69207 -1.43595,-1.25831 -3.19101,-1.25831 -1.75505,0 -3.50742,-0.4928 -3.89414,-1.0951 -0.38673,-0.60231 -5.44335,-1.35923 -11.23695,-1.68206 -5.79358,-0.32282 -11.21809,-1.24563 -12.05447,-2.05069 -0.83636,-0.80504 -2.87368,-1.46372 -4.52737,-1.46372 -1.65367,0 -3.00667,-0.55955 -3.00667,-1.24344 0,-0.68389 -2.3531,-1.60563 -5.2291,-2.04829 -2.876,-0.44267 -5.229,-1.29872 -5.229,-1.90235 0,-0.60361 -2.3184,-1.09748 -5.1519,-1.09748 -2.8336,0 -5.4901,-0.52662 -5.9033,-1.17025 -0.4133,-0.64364 -3.9776,-1.55824 -7.9208,-2.03246 -3.9431,-0.47421 -7.1693,-1.36321 -7.1693,-1.97553 0,-0.61233 -9.4123,-1.11333 -20.9162,-1.11333 -11.5039,0 -20.9162,0.5002 -20.9162,1.11156 0,1.15949 -4.8691,3.03618 -7.2654,2.8003 -0.7605,-0.0749 -2.4617,2.21805 -3.7806,5.09533 -1.9135,4.17473 -2.0874,5.71001 -0.8607,7.60067 0.8454,1.30306 1.2135,2.87329 0.8179,3.48939 -0.3956,0.61609 -0.1214,1.47585 0.6093,1.91055 0.7308,0.43469 1.3286,1.88943 1.3286,3.23273 0,1.3433 0.5883,2.44236 1.3073,2.44236 0.719,0 1.3072,0.75066 1.3072,1.66813 0,0.91746 1.4707,2.99801 3.2682,4.62343 1.7975,1.62543 3.2682,3.70597 3.2682,4.62344 0,0.91747 0.5882,1.66813 1.3072,1.66813 0.719,0 1.3073,0.62222 1.3073,1.38272 0,1.89084 4.1768,10.39647 5.5568,11.31572 0.6146,0.40946 0.99,1.25882 0.8341,1.88747 -0.5638,2.27331 1.7995,8.15757 3.8898,9.68512 2.2754,1.66287 4.6686,4.96055 6.5853,9.07427 0.6449,1.38414 2.9966,4.17972 5.2259,6.2124 2.2294,2.03268 4.0727,4.29764 4.0964,5.03325 0.024,0.73561 2.3767,3.58724 5.229,6.33696 3.5512,3.42341 5.1861,6.10098 5.1861,8.49361 0,1.92177 0.5882,3.49413 1.3072,3.49413 0.719,0 1.3073,0.99809 1.3073,2.21797 0,1.21988 1.4176,3.24266 3.1501,4.49506 3.0459,2.20171 5.405,7.35324 4.8491,10.58878 -0.1486,0.86509 0.234,1.57289 0.8503,1.57289 0.6163,0 1.9285,1.98184 2.9159,4.4041 0.9874,2.42225 2.4484,4.40409 3.2468,4.40409 1.8473,0 10.4982,8.71986 11.5662,11.65829 0.4439,1.2215 2.2929,2.76465 4.1088,3.42921 3.0984,1.13389 4.1393,4.0753 3.4219,9.6693 -0.1042,0.8129 0.4143,1.83725 1.1523,2.27631 0.7381,0.43906 1.342,4.44546 1.342,8.90308 0,4.45763 0.5196,8.10477 1.1548,8.10477 1.3112,0 2.98731,4.32879 3.24657,8.38486 0.0957,1.49734 0.61522,3.14888 1.15447,3.67008 0.53924,0.5212 0.98045,2.22167 0.98045,3.77883 0,1.55716 0.73533,3.16151 1.63408,3.56523 1.30726,0.5872 1.30726,0.88082 0,1.46802 -1.97402,0.88672 -2.2565,13.84696 -0.32682,14.9949 0.71899,0.42773 1.30726,2.9399 1.30726,5.5826 0,2.73596 0.84435,5.47942 1.9609,6.37138 1.07849,0.86155 1.97398,3.05429 1.98997,4.87274 0.0159,1.81846 1.17944,4.7219 2.58545,6.45208 1.40601,1.73018 2.56947,3.75488 2.58545,4.49933 0.0159,0.74445 1.47372,2.6599 3.23939,4.25655 1.76568,1.59665 3.16669,3.25251 3.11335,3.6797 -0.31638,2.53429 0.45286,3.92249 2.17355,3.92249 1.07849,0 1.96089,0.56624 1.96089,1.25831 0,0.69207 0.75746,1.25831 1.68322,1.25831 2.28187,0 13.5222,11.29608 14.55449,14.62665 1.16512,3.75919 14.02259,16.03559 19.33683,18.46294 2.43923,1.11414 5.52458,3.18464 6.85631,4.60108 1.33173,1.41645 3.47197,2.57535 4.75609,2.57535 1.28413,0 2.67036,0.52268 3.08054,1.1615 0.41018,0.63883 2.50383,1.53318 4.65258,1.98746 2.14874,0.45426 3.9068,1.3472 3.9068,1.98428 0,0.63707 1.43595,1.15833 3.191,1.15833 1.75505,0 3.5387,0.54151 3.96366,1.20336 0.42495,0.66185 1.69558,0.86245 2.82361,0.4458 1.12803,-0.41667 2.43279,-0.22088 2.89947,0.43509 0.4667,0.65596 3.07839,2.19153 5.80378,3.4124 2.7254,1.22085 6.90569,3.8681 9.28953,5.88279 2.38386,2.01467 4.59834,3.40887 4.92108,3.09822 0.32274,-0.31067 4.65656,3.3828 9.63073,8.20767 4.97416,4.82487 9.79503,8.7725 10.71306,8.7725 0.91803,0 1.66914,0.5002 1.66914,1.11155 0,0.61135 1.02947,1.47417 2.28771,1.91736 1.25824,0.44319 4.93492,2.20211 8.1704,3.90869 3.23547,1.7066 6.61802,3.10875 7.51676,3.1159 0.89874,0.008 1.63408,0.44566 1.63408,0.97448 0,0.5288 2.20601,1.94702 4.90224,3.15158 5.83803,2.60818 9.83648,4.9375 10.92333,6.36344 0.43562,0.57153 3.24425,1.35573 6.24138,1.74269 2.99712,0.38694 5.76384,1.19337 6.14824,1.79205 1.02049,1.58938 7.61382,1.33057 9.37859,-0.36813 1.0138,-0.97584 2.07098,-1.0477 3.2028,-0.21771 0.92922,0.68141 5.20428,1.35096 9.50013,1.48786 4.29586,0.13692 8.38433,0.80113 9.08548,1.47603 1.71972,1.65532 9.03408,1.55993 10.80103,-0.14086 1.02339,-0.98507 1.66702,-0.98507 2.2995,0 0.48309,0.75237 3.20467,1.36795 6.04798,1.36795 4.97649,0 6.10692,-0.32221 12.7041,-3.62111 1.64698,-0.82356 3.51821,-1.18586 4.15828,-0.80509 0.64006,0.38078 1.53326,0.11677 1.98487,-0.58653 0.4516,-0.70336 2.85136,-1.27883 5.33278,-1.27883 2.96491,0 6.63592,-1.41318 10.70778,-4.12202 5.1214,-3.40707 6.70625,-3.90094 9.13743,-2.8474 1.61774,0.70104 2.94135,1.70659 2.94135,2.23455 0,1.01874 1.53478,2.54026 10.17057,10.0827 2.97148,2.59527 6.0292,4.71867 6.79493,4.71867 0.76573,0 2.00676,1.29824 2.75785,2.88497 0.75108,1.58673 3.53276,3.85431 6.18147,5.03906 6.57654,2.94162 9.5203,4.7924 12.91447,8.119463 1.58856,1.55717 3.38526,2.83121 3.99267,2.83121 0.6074,0 3.4021,2.26496 6.21041,5.03325 2.80832,2.76829 5.76651,5.03325 6.57375,5.03325 0.80725,0 2.74679,1.31054 4.31012,2.91231 2.59733,2.6612 2.8424,4.23437 2.8424,18.24554 l 0,15.33323 -261.45268,0 -261.45268,0 0,-301.365983 z m 288.90521,115.13565 c 0,-0.69208 -1.73008,-1.25832 -3.84463,-1.25832 -2.11455,0 -4.16794,-0.50351 -4.56307,-1.11892 -0.39515,-0.6154 -2.34173,-1.50297 -4.32576,-1.97238 -4.43942,-1.05032 -13.41181,-9.20661 -13.41181,-12.1919 0,-1.20413 -1.09148,-4.06198 -2.42552,-6.35077 -2.48979,-4.27169 -2.80464,-9.35871 -0.91593,-14.79842 2.11768,-6.09919 9.0695,-10.12519 17.48346,-10.12519 l 6.39041,0 -0.61702,6.18106 c -0.49891,4.99789 0.10079,7.63094 3.13324,13.75556 3.7954,7.66568 7.27408,10.1528 10.54537,7.53952 1.98761,-1.58779 2.31887,-9.85976 0.39484,-9.85976 -0.71899,0 -1.30726,-1.32785 -1.30726,-2.95076 0,-1.62292 -1.1809,-3.97945 -2.62424,-5.23673 -1.44334,-1.25729 -3.45719,-3.89313 -4.47523,-5.85744 l -1.85098,-3.57145 7.76111,0 c 7.28236,0 12.41673,1.54468 14.51771,4.36765 0.50015,0.67203 1.25121,0.89284 1.66901,0.49068 1.44939,-1.39513 11.14789,8.35976 11.14789,11.21269 0,1.54203 0.58826,2.80367 1.30726,2.80367 0.71899,0 1.30726,1.41561 1.30726,3.14579 0,1.73018 -0.58827,3.14578 -1.30726,3.14578 -0.719,0 -1.30726,1.04548 -1.30726,2.3233 0,4.66493 -7.81901,15.29308 -11.25094,15.29308 -0.85988,0 -9.06136,3.34801 -12.58888,5.13904 -3.03253,1.5397 -8.84177,1.4702 -8.84177,-0.10578 z m 151.15112,-52.59655 c -0.53358,-0.831 -2.6655,-1.51092 -4.73762,-1.51092 -2.07211,0 -4.13699,-0.57548 -4.5886,-1.27883 -0.4516,-0.70336 -1.27313,-1.00994 -1.8256,-0.68128 -1.13317,0.67412 -9.07024,-7.25441 -11.56213,-11.54968 -1.91531,-3.30142 -2.15139,-8.68271 -0.42594,-9.70917 0.66369,-0.39482 1.59283,-2.41007 2.06477,-4.47836 0.47194,-2.06828 1.39961,-3.76051 2.06148,-3.76051 0.66185,0 1.20339,-0.75065 1.20339,-1.66813 0,-1.78079 4.08575,-5.54893 8.68818,-8.01279 2.35217,-1.25921 3.17701,-1.10673 5.10485,0.94374 1.3262,1.41057 1.66032,2.44562 0.78948,2.44562 -0.83044,0 -1.50988,1.4156 -1.50988,3.14578 0,1.73018 0.58827,3.14578 1.30727,3.14578 0.71899,0 1.30726,0.73444 1.30726,1.6321 0,1.95437 9.31182,10.95104 11.33465,10.95104 0.78097,0 1.99208,-2.16956 2.69133,-4.82126 1.04345,-3.95693 0.79288,-5.81797 -1.39767,-10.38108 -1.46798,-3.0579 -4.08185,-6.85534 -5.80863,-8.43875 -3.5045,-3.21354 -3.06065,-6.424 1.0305,-7.45381 1.43436,-0.36104 2.60793,-1.15665 2.60793,-1.768 0,-1.89271 12.43901,-1.22293 16.87843,0.90881 3.66193,1.75841 6.6065,5.78866 7.25767,9.93361 0.10877,0.69207 0.67636,2.26967 1.2614,3.50577 0.93649,1.97868 0.4643,11.73583 -0.84004,17.35804 -0.85947,3.70469 -11.9385,16.32152 -16.30113,18.56377 -1.57047,0.80718 -5.49226,1.46759 -8.71509,1.46759 -3.39754,0 -6.07953,0.63486 -6.38291,1.51092 -0.40714,1.17567 -0.73849,1.17567 -1.49335,0 z"
     style="fill:#000000;fill-opacity:1"
     inkscape:export-xdpi="123.41467"
     inkscape:export-ydpi="123.41467" />
  <path
     style="fill:#33fcff;fill-opacity:1"
     d="m -964.15716,-552.15821 0,-172.98049 -130.89374,0 -130.8937,0 0,172.98049 0,172.98046 130.8937,0 130.89374,0 0,-172.98046 z"
     id="path4137"
     inkscape:connector-curvature="0"
     inkscape:export-xdpi="123.41467"
     inkscape:export-ydpi="123.41467" />
  <path
     style="fill:#000000;fill-opacity:1"
     d="m -922.51927,-554.58705 0,-179.60471 -151.71263,0 -151.7127,0 0,45.74485 c 0,25.15966 0.1707,45.74483 0.3793,45.74483 0.5829,0 3.088,-2.60831 3.6563,-3.80687 0.6389,-1.34776 2.2857,-3.94868 2.8124,-4.4422 0.8899,-0.83376 3.3775,-7.14173 3.1697,-8.03777 -0.1226,-0.52867 0.1335,-0.96121 0.5689,-0.96121 0.4355,0 0.7918,-1.32993 0.7918,-2.9554 0,-1.62548 0.3414,-3.16397 0.7586,-3.41888 0.4172,-0.25491 0.7607,-1.03412 0.7632,-1.73156 0,-0.69745 0.5147,-2.23469 1.1379,-3.41608 0.6232,-1.1814 1.1332,-2.78434 1.1332,-3.56211 0,-0.77776 0.3142,-1.4141 0.6982,-1.4141 0.3841,0 0.9127,-0.96496 1.1748,-2.14435 0.262,-1.1794 1.4838,-3.09857 2.7152,-4.26484 1.2314,-1.16626 2.2388,-2.41732 2.2388,-2.78013 0,-0.3628 0.8939,-1.81825 1.9864,-3.23431 1.0926,-1.41608 1.7158,-2.57467 1.385,-2.57467 -0.3309,0 0.063,-0.75929 0.8746,-1.68731 0.8118,-0.92802 2.4755,-3.71208 3.697,-6.1868 2.4287,-4.92036 5.431,-8.62402 6.9909,-8.62402 0.5478,0 0.996,-0.5062 0.996,-1.12488 0,-0.83102 0.88,-1.12487 3.3687,-1.12487 1.8528,0 3.5705,0.32272 3.8172,0.71716 0.2465,0.39444 0.9149,0.54016 1.4851,0.32383 0.5703,-0.21633 1.2622,-0.0329 1.5376,0.40771 0.2754,0.44058 1.1104,0.80105 1.8556,0.80105 0.7451,0 1.9653,0.66696 2.7116,1.48214 0.7462,0.81518 1.6048,1.33061 1.9079,1.14539 0.6303,-0.38512 7.5903,6.663 7.5903,7.68643 0,0.37033 0.8534,1.46589 1.8964,2.43459 1.043,0.9687 1.8964,2.42453 1.8964,3.23519 0,0.81065 0.5974,1.90574 1.3275,2.43353 0.7301,0.52778 1.3734,1.23991 1.4295,1.5825 0.3109,1.89756 1.2999,3.99751 1.8828,3.99751 0.3686,0 0.6701,0.68874 0.6701,1.53055 0,0.8418 1.0526,3.52987 2.339,5.97351 1.2865,2.44364 2.404,4.88041 2.4833,5.41506 0.079,0.53465 0.819,1.91718 1.6435,3.0723 3.6619,5.13 5.1163,6.50603 6.8766,6.50603 1.0059,0 1.8289,0.33746 1.8289,0.74992 0,0.41245 1.3085,0.74991 2.9078,0.74991 1.5993,0 3.1639,0.2531 3.4768,0.56244 0.3129,0.30933 0.7965,0.59158 1.0746,0.6272 0.8577,0.10985 3.5188,1.30167 3.9193,1.75533 0.5371,0.60852 3.1412,2.18614 4.9306,2.98713 0.8345,0.3735 3.039,2.22874 4.899,4.12274 1.86,1.894 3.8228,3.44363 4.3617,3.44363 0.539,0 0.9799,0.30736 0.9799,0.68302 0,0.37566 1.4508,1.39891 3.2239,2.2739 1.7732,0.87498 4.5893,2.4062 6.2582,3.4027 5.4219,3.23753 7.4099,4.1392 9.1264,4.1392 0.9279,0 2.1119,0.50619 2.6313,1.12486 0.5194,0.61869 1.4146,1.12488 1.9893,1.12488 0.5747,0 1.045,0.29811 1.045,0.66245 0,0.36435 0.5973,0.87855 1.3275,1.14269 0.7301,0.26413 2.8635,1.31239 4.741,2.32946 1.8774,1.01707 3.7877,1.85271 4.2452,1.85697 1.3861,0.0128 5.6161,2.31945 5.6161,3.06234 0,0.38225 0.6873,0.69498 1.5274,0.69498 1.4561,0 4.4924,1.34372 5.2997,2.34539 0.2086,0.25883 1.8282,0.71002 3.5992,1.00266 1.7709,0.29262 3.4125,0.84014 3.6479,1.2167 0.2354,0.37657 2.6065,0.68467 5.2692,0.68467 2.6626,0 5.0521,0.33746 5.3099,0.74991 0.2578,0.41245 1.1314,0.74991 1.9412,0.74991 0.8098,0 1.4723,-0.33746 1.4723,-0.74991 0,-0.41245 0.8333,-0.74991 1.8517,-0.74991 1.0184,0 2.0352,-0.2937 2.2596,-0.65265 0.2244,-0.35896 3.1586,-0.81006 6.5204,-1.00246 3.3619,-0.19238 6.5096,-0.74235 6.9949,-1.22214 0.4853,-0.47978 1.6675,-0.87233 2.6271,-0.87233 0.9595,0 1.7446,-0.33348 1.7446,-0.74106 0,-0.40757 1.3655,-0.95689 3.0343,-1.22071 1.6689,-0.26381 3.0342,-0.774 3.0342,-1.13374 0,-0.35974 1.3453,-0.65406 2.9895,-0.65406 1.6443,0 3.1857,-0.31385 3.4255,-0.69744 0.2398,-0.38358 2.3081,-0.92866 4.5962,-1.21128 2.2881,-0.28261 4.1601,-0.81243 4.1601,-1.17735 0,-0.36494 5.46173,-0.66351 12.13703,-0.66351 6.6754,0 12.137,0.2981 12.137,0.66245 0,0.69102 2.8254,1.80947 4.2159,1.66889 0.4413,-0.0447 1.4285,1.32189 2.1938,3.03666 1.1103,2.48801 1.2112,3.40298 0.4994,4.52976 -0.4905,0.77659 -0.7041,1.71239 -0.4746,2.07956 0.2296,0.36717 0.071,0.87956 -0.3535,1.13864 -0.4241,0.25905 -0.771,1.12603 -0.771,1.9266 0,0.80056 -0.3414,1.45557 -0.7586,1.45557 -0.4172,0 -0.7585,0.44737 -0.7585,0.99415 0,0.54678 -0.8534,1.78672 -1.8964,2.75542 -1.0431,0.96871 -1.8965,2.20865 -1.8965,2.75543 0,0.54678 -0.3413,0.99415 -0.7585,0.99415 -0.4172,0 -0.7586,0.37082 -0.7586,0.82406 0,1.12688 -2.4236,6.19597 -3.2244,6.74381 -0.3566,0.24403 -0.5745,0.75022 -0.484,1.12488 0.3271,1.35482 -1.0442,4.86165 -2.2571,5.77203 -1.3204,0.99101 -2.7091,2.95633 -3.8213,5.40798 -0.3742,0.8249 -1.7388,2.49098 -3.0324,3.70239 -1.2937,1.21142 -2.3633,2.56126 -2.377,2.99966 -0.014,0.4384 -1.3791,2.13788 -3.0342,3.77663 -2.0607,2.04024 -3.0094,3.63599 -3.0094,5.06192 0,1.14532 -0.34133,2.08239 -0.75853,2.08239 -0.4172,0 -0.7586,0.59483 -0.7586,1.32185 0,0.72701 -0.8226,1.93252 -1.8279,2.67891 -1.7674,1.31215 -3.1363,4.3823 -2.8138,6.31058 0.086,0.51557 -0.1357,0.93739 -0.4934,0.93739 -0.3576,0 -1.119,1.18112 -1.692,2.62471 -0.5729,1.44358 -1.4207,2.6247 -1.884,2.6247 -1.0719,0 -6.0918,5.19676 -6.7115,6.94798 -0.2576,0.72797 -1.3305,1.64764 -2.3842,2.0437 -1.7979,0.67576 -2.4019,2.42875 -1.9856,5.7626 0.061,0.48446 -0.2404,1.09494 -0.6686,1.35661 -0.4283,0.26166 -0.7788,2.64935 -0.7788,5.30595 0,2.65661 -0.3015,4.83019 -0.6701,4.83019 -0.7608,0 -1.7334,2.57982 -1.8838,4.99712 -0.056,0.89236 -0.357,1.87662 -0.6699,2.18725 -0.3129,0.31061 -0.5689,1.32404 -0.5689,2.25206 0,0.92801 -0.4267,1.88416 -0.9482,2.12476 -0.7586,0.34996 -0.7586,0.52494 0,0.8749 1.1454,0.52845 1.3093,8.25235 0.1896,8.93649 -0.4172,0.25491 -0.7586,1.75209 -0.7586,3.32706 0,1.63054 -0.4899,3.26556 -1.1378,3.79714 -0.6259,0.51346 -1.1454,1.82025 -1.1547,2.90399 -0.01,1.08376 -0.6844,2.81411 -1.5003,3.84524 -0.8159,1.03114 -1.491,2.2378 -1.5002,2.68147 -0.01,0.44366 -0.8552,1.58521 -1.8797,2.53677 -1.0246,0.95154 -1.8376,1.93839 -1.8066,2.19298 0.1836,1.51036 -0.2628,2.33768 -1.2613,2.33768 -0.6258,0 -1.1378,0.33746 -1.1378,0.74991 0,0.41246 -0.4396,0.74992 -0.9767,0.74992 -1.3241,0 -7.8465,6.73211 -8.4455,8.71702 -0.6761,2.24036 -8.1369,9.55671 -11.2206,11.00334 -1.4154,0.66399 -3.2057,1.89794 -3.9785,2.7421 -0.7728,0.84415 -2.0146,1.53482 -2.7598,1.53482 -0.7451,0 -1.5495,0.31151 -1.7875,0.69222 -0.2381,0.38073 -1.4529,0.91373 -2.6998,1.18446 -1.2468,0.27073 -2.267,0.80289 -2.267,1.18257 0,0.37968 -0.8332,0.69033 -1.8516,0.69033 -1.0184,0 -2.0534,0.32272 -2.3,0.71716 -0.2466,0.39445 -0.9839,0.51399 -1.6384,0.26569 -0.6546,-0.24832 -1.4117,-0.13163 -1.6825,0.25929 -0.2708,0.39094 -1.7863,1.30609 -3.3678,2.03369 -1.5814,0.72759 -4.0071,2.30527 -5.3904,3.50596 -1.3833,1.20068 -2.6683,2.03158 -2.8555,1.84645 -0.1873,-0.18516 -2.7021,2.01604 -5.5884,4.89151 -2.8864,2.87546 -5.6838,5.22813 -6.2165,5.22813 -0.5327,0 -0.9685,0.29811 -0.9685,0.66245 0,0.36434 -0.5974,0.87856 -1.3275,1.14269 -0.7301,0.26413 -2.8636,1.31238 -4.741,2.32946 -1.8775,1.01707 -3.8403,1.85271 -4.3618,1.85698 -0.5215,0.005 -0.9482,0.26559 -0.9482,0.58075 0,0.31515 -1.2801,1.16037 -2.8446,1.87825 -3.3876,1.55439 -5.7078,2.94259 -6.3385,3.79241 -0.2527,0.34061 -1.8825,0.80797 -3.6216,1.03859 -1.7392,0.23059 -3.3446,0.7112 -3.5677,1.068 -0.5921,0.94722 -4.418,0.79297 -5.4421,-0.2194 -0.5883,-0.58157 -1.2017,-0.6244 -1.8585,-0.12974 -0.5391,0.40609 -3.0198,0.80513 -5.5126,0.88672 -2.4927,0.0815 -4.8651,0.47744 -5.272,0.87966 -0.9979,0.98652 -5.2422,0.92967 -6.2675,-0.0839 -0.5938,-0.58708 -0.9673,-0.58708 -1.3343,0 -0.2803,0.44838 -1.8596,0.81525 -3.5095,0.81525 -2.8877,0 -3.5436,-0.19202 -7.3717,-2.15807 -0.9557,-0.49082 -2.0415,-0.70674 -2.413,-0.47981 -0.3713,0.22694 -0.8896,0.0696 -1.1517,-0.34955 -0.262,-0.41918 -1.6546,-0.76214 -3.0944,-0.76214 -1.7205,0 -3.8506,-0.84221 -6.2134,-2.4566 -2.9718,-2.0305 -3.8914,-2.32484 -5.3022,-1.69696 -0.9387,0.4178 -1.7068,1.01708 -1.7068,1.33173 0,0.60713 -0.8906,1.51391 -5.9016,6.00897 -1.7243,1.5467 -3.4986,2.81217 -3.9429,2.81217 -0.4443,0 -1.1644,0.77372 -1.6003,1.71936 -0.4358,0.94564 -2.05,2.29704 -3.5869,3.00312 -3.8161,1.75311 -5.5243,2.85612 -7.4939,4.83894 -0.9217,0.92802 -1.9643,1.68732 -2.3168,1.68732 -0.3524,0 -1.9741,1.34984 -3.6037,2.99965 -1.6296,1.64981 -3.3461,2.99966 -3.8145,2.99966 -0.4684,0 -1.5939,0.78104 -2.501,1.73565 -1.5072,1.58599 -1.6494,2.52355 -1.6494,10.87377 l 0,9.13812 151.7127,0 151.71263,0 0,-179.60467 z m -167.64253,68.61723 c 0,-0.41245 1.0039,-0.74991 2.231,-0.74991 1.227,0 2.4185,-0.30008 2.6477,-0.66684 0.2294,-0.36676 1.3589,-0.89573 2.5102,-1.17548 2.576,-0.62596 7.7824,-5.48685 7.7824,-7.26599 0,-0.71762 0.6334,-2.42081 1.4074,-3.78486 1.4448,-2.5458 1.6275,-5.5775 0.5316,-8.8194 -1.2289,-3.63492 -5.2628,-6.03429 -10.1452,-6.03429 l -3.7081,0 0.358,3.68372 c 0.2895,2.97859 -0.059,4.5478 -1.8181,8.19788 -2.2023,4.56851 -4.2209,6.05075 -6.1191,4.49332 -1.1534,-0.94628 -1.3456,-5.87611 -0.2291,-5.87611 0.4171,0 0.7585,-0.79136 0.7585,-1.75856 0,-0.96721 0.6852,-2.37163 1.5228,-3.12093 0.8375,-0.7493 2.0061,-2.32019 2.5968,-3.49085 l 1.0741,-2.12847 -4.5035,0 c -4.2258,0 -7.2051,0.92058 -8.4242,2.60298 -0.2902,0.40051 -0.7261,0.5321 -0.9685,0.29243 -0.841,-0.83146 -6.4688,4.98216 -6.4688,6.68241 0,0.919 -0.3413,1.6709 -0.7585,1.6709 -0.4172,0 -0.7586,0.84366 -0.7586,1.87479 0,1.03114 0.3414,1.87479 0.7586,1.87479 0.4172,0 0.7585,0.62308 0.7585,1.38462 0,2.78015 4.5372,9.11419 6.5286,9.11419 0.499,0 5.258,1.99531 7.305,3.06271 1.7596,0.91761 5.1305,0.8762 5.1305,-0.0631 z m -87.7082,-31.34589 c 0.3097,-0.49524 1.5467,-0.90046 2.7491,-0.90046 1.2024,0 2.4006,-0.34296 2.6626,-0.76214 0.2621,-0.41918 0.7388,-0.60189 1.0594,-0.40602 0.6575,0.40175 5.2632,-4.3234 6.7092,-6.88325 1.1113,-1.96754 1.2483,-5.17462 0.2471,-5.78636 -0.3851,-0.2353 -0.9243,-1.43633 -1.1981,-2.66896 -0.2739,-1.23263 -0.8122,-2.24115 -1.1962,-2.24115 -0.3841,0 -0.6983,-0.44737 -0.6983,-0.99415 0,-1.0613 -2.3709,-3.30699 -5.0415,-4.77538 -1.3649,-0.75045 -1.8435,-0.65957 -2.9622,0.56244 -0.7696,0.84066 -0.9634,1.45752 -0.4581,1.45752 0.4819,0 0.8761,0.84365 0.8761,1.87479 0,1.03112 -0.3413,1.87478 -0.7585,1.87478 -0.4172,0 -0.7586,0.4377 -0.7586,0.97268 0,1.16475 -5.4033,6.52648 -6.5771,6.52648 -0.4532,0 -1.156,-1.29299 -1.5617,-2.87333 -0.6055,-2.3582 -0.4601,-3.46732 0.811,-6.18679 0.8518,-1.82241 2.3685,-4.08557 3.3706,-5.02923 2.0335,-1.91517 1.776,-3.82851 -0.598,-4.44223 -0.8323,-0.21517 -1.5133,-0.68933 -1.5133,-1.05368 0,-1.128 -7.218,-0.72882 -9.794,0.54163 -2.1249,1.04795 -3.8335,3.44985 -4.2114,5.92011 -0.063,0.41245 -0.3925,1.35265 -0.732,2.08933 -0.5434,1.17924 -0.2694,6.99419 0.4875,10.34485 0.4987,2.20787 6.9275,9.72711 9.459,11.06342 0.9113,0.48106 3.187,0.87464 5.0571,0.87464 1.9715,0 3.5278,0.37836 3.7038,0.90046 0.2363,0.70066 0.4286,0.70066 0.8665,0 z"
     id="path4139"
     inkscape:connector-curvature="0"
     inkscape:export-xdpi="123.41467"
     inkscape:export-ydpi="123.41467" />
</svg>
